<svg xmlns="http://www.w3.org/2000/svg" width="1440" height="300" viewBox="0 0 1440 300" fill="none">
  <defs>
    <linearGradient id="bg" x1="0" y1="0" x2="1440" y2="300">
      <stop stop-color="#050505"/>
      <stop offset=".5" stop-color="#0A0A09"/>
      <stop offset="1" stop-color="#050505"/>
    </linearGradient>
    <linearGradient id="card" x1="0" y1="0" x2="112" y2="112">
      <stop stop-color="#171712"/>
      <stop offset="1" stop-color="#10100D"/>
    </linearGradient>
    <filter id="shadow" x="-30%" y="-30%" width="160%" height="170%">
      <feDropShadow dx="0" dy="8" stdDeviation="8" flood-color="#000" flood-opacity=".55"/>
    </filter>
    <g id="tile">
      <rect width="112" height="112" rx="12" fill="url(#card)" stroke="#2B2B22"/>
      <rect x=".5" y=".5" width="111" height="111" rx="11.5" stroke="#FFF" stroke-opacity=".018"/>
    </g>
  </defs>

  <rect width="1440" height="300" rx="20" fill="url(#bg)"/>

  <!-- 01 Candlestick -->
  <g transform="translate(79 29)" filter="url(#shadow)">
    <use href="#tile"/>
    <g stroke-linecap="round">
      <path d="M22 31V84" stroke="#E47773" stroke-width="2"/><rect x="18" y="44" width="8" height="26" rx="2" fill="#D96B68"/>
      <path d="M39 23V72" stroke="#8DBD81" stroke-width="2"/><rect x="35" y="34" width="8" height="24" rx="2" fill="#78AA70"/>
      <path d="M56 18V67" stroke="#8DBD81" stroke-width="2"/><rect x="52" y="27" width="8" height="24" rx="2" fill="#78AA70"/>
      <path d="M73 29V89" stroke="#E47773" stroke-width="2"/><rect x="69" y="42" width="8" height="31" rx="2" fill="#D96B68"/>
      <path d="M90 25V76" stroke="#8DBD81" stroke-width="2"/><rect x="86" y="36" width="8" height="24" rx="2" fill="#78AA70"/>
    </g>
  </g>

  <!-- 02 Line -->
  <g transform="translate(209 29)" filter="url(#shadow)">
    <use href="#tile"/>
    <path d="M17 89H94M17 89V21" stroke="#4B4B43"/>
    <path d="M18 82C30 78 34 63 44 60C55 57 58 72 68 58C78 44 84 26 94 18" stroke="#B07CC6" stroke-width="3" stroke-linecap="round"/>
    <path d="M18 82C30 78 34 63 44 60C55 57 58 72 68 58C78 44 84 26 94 18V89H18Z" fill="#B07CC6" opacity=".1"/>
  </g>

  <!-- 03 Bars -->
  <g transform="translate(339 29)" filter="url(#shadow)">
    <use href="#tile"/>
    <path d="M16 91H96" stroke="#4B4B43"/>
    <rect x="21" y="61" width="11" height="30" rx="2" fill="#D7B766"/>
    <rect x="38" y="36" width="11" height="55" rx="2" fill="#E7E2D3"/>
    <rect x="55" y="48" width="11" height="43" rx="2" fill="#C9C4B6"/>
    <rect x="72" y="25" width="11" height="66" rx="2" fill="#E7E2D3"/>
    <rect x="89" y="68" width="7" height="23" rx="2" fill="#D7B766"/>
  </g>

  <!-- 04 Heatmap -->
  <g transform="translate(469 29)" filter="url(#shadow)">
    <use href="#tile"/>
    <g transform="translate(24 24)">
      <rect width="14" height="14" fill="#57402E"/><rect x="16" width="14" height="14" fill="#D4863D"/><rect x="32" width="14" height="14" fill="#71513A"/><rect x="48" width="14" height="14" fill="#E0A349"/>
      <rect y="16" width="14" height="14" fill="#C97937"/><rect x="16" y="16" width="14" height="14" fill="#50453D"/><rect x="32" y="16" width="14" height="14" fill="#D99A43"/><rect x="48" y="16" width="14" height="14" fill="#6A503A"/>
      <rect y="32" width="14" height="14" fill="#68513B"/><rect x="16" y="32" width="14" height="14" fill="#E7B14F"/><rect x="32" y="32" width="14" height="14" fill="#A56638"/><rect x="48" y="32" width="14" height="14" fill="#4B443B"/>
      <rect y="48" width="14" height="14" fill="#D98B3D"/><rect x="16" y="48" width="14" height="14" fill="#7B5940"/><rect x="32" y="48" width="14" height="14" fill="#C47639"/><rect x="48" y="48" width="14" height="14" fill="#E0A349"/>
    </g>
  </g>

  <!-- 05 Scatter -->
  <g transform="translate(599 29)" filter="url(#shadow)">
    <use href="#tile"/>
    <g>
      <circle cx="24" cy="72" r="4" fill="#8DBD81"/><circle cx="32" cy="42" r="3" fill="#D7B766"/>
      <circle cx="43" cy="82" r="3" fill="#D98B52"/><circle cx="49" cy="58" r="5" fill="#B07CC6"/>
      <circle cx="58" cy="31" r="3" fill="#8DBD81"/><circle cx="66" cy="68" r="4" fill="#E7E2D3"/>
      <circle cx="77" cy="25" r="3" fill="#D7B766"/><circle cx="84" cy="52" r="3" fill="#D96B68"/>
      <circle cx="91" cy="37" r="4" fill="#8DBD81"/><circle cx="63" cy="88" r="3" fill="#D98B52"/>
    </g>
  </g>

  <!-- 06 Network -->
  <g transform="translate(729 29)" filter="url(#shadow)">
    <use href="#tile"/>
    <g stroke="#8C7750" stroke-width="1.5">
      <path d="M20 79L38 35L58 68L77 24L93 62L68 91L20 79Z"/>
      <path d="M38 35L93 62M58 68L77 24M58 68L68 91"/>
    </g>
    <g fill="#D7B766">
      <circle cx="20" cy="79" r="4"/><circle cx="38" cy="35" r="4"/><circle cx="58" cy="68" r="5"/>
      <circle cx="77" cy="24" r="4"/><circle cx="93" cy="62" r="4"/><circle cx="68" cy="91" r="4"/>
    </g>
  </g>

  <!-- 07 Waterfall -->
  <g transform="translate(859 29)" filter="url(#shadow)">
    <use href="#tile"/>
    <path d="M17 23H30V36H43V49H56V62H69V76H82V90H96" stroke="#8DBD81" stroke-width="3" stroke-linejoin="round"/>
    <path d="M17 91H96" stroke="#4B4B43"/>
  </g>

  <!-- 08 Radar -->
  <g transform="translate(989 29)" filter="url(#shadow)">
    <use href="#tile"/>
    <g transform="translate(56 56)">
      <path d="M0-39L37-12L23 32L-23 32L-37-12Z" stroke="#4C493E"/>
      <path d="M0-24L23-8L14 19L-14 19L-23-8Z" stroke="#4C493E"/>
      <path d="M0 0V-39M0 0L37-12M0 0L23 32M0 0L-23 32M0 0L-37-12" stroke="#4C493E"/>
      <path d="M0-31L29-9L13 17L-18 25L-26-8Z" fill="#B07CC6" fill-opacity=".2" stroke="#B07CC6" stroke-width="2"/>
    </g>
  </g>

  <!-- 09 Donut -->
  <g transform="translate(1119 29)" filter="url(#shadow)">
    <use href="#tile"/>
    <circle cx="56" cy="56" r="34" stroke="#292922" stroke-width="14"/>
    <circle cx="56" cy="56" r="34" stroke="#D7B766" stroke-width="14" stroke-dasharray="67 147" transform="rotate(-90 56 56)"/>
    <circle cx="56" cy="56" r="34" stroke="#8DBD81" stroke-width="14" stroke-dasharray="46 168" stroke-dashoffset="-67" transform="rotate(-90 56 56)"/>
    <circle cx="56" cy="56" r="34" stroke="#D96B68" stroke-width="14" stroke-dasharray="31 183" stroke-dashoffset="-113" transform="rotate(-90 56 56)"/>
    <circle cx="56" cy="56" r="34" stroke="#B07CC6" stroke-width="14" stroke-dasharray="70 144" stroke-dashoffset="-144" transform="rotate(-90 56 56)"/>
  </g>

  <!-- 10 Area -->
  <g transform="translate(1249 29)" filter="url(#shadow)">
    <use href="#tile"/>
    <path d="M16 91C29 79 37 83 48 61C59 40 68 49 79 28C86 17 91 20 96 14V93H16Z" fill="#8DBD81" opacity=".22"/>
    <path d="M16 91C29 79 37 83 48 61C59 40 68 49 79 28C86 17 91 20 96 14" stroke="#8DBD81" stroke-width="3" stroke-linecap="round"/>
    <path d="M16 93H96" stroke="#4B4B43"/>
  </g>

  <!-- 11 Circuit -->
  <g transform="translate(79 159)" filter="url(#shadow)">
    <use href="#tile"/>
    <g stroke="#D7B766" stroke-width="2" stroke-linecap="round" stroke-linejoin="round">
      <path d="M10 56H28M39 56H55M55 56V27H82M55 56V85H82M82 27V85M82 42H100M82 70H100"/>
      <path d="M28 43V69M39 43V69"/>
      <path d="M67 27L71 22L75 32L79 22L83 32L87 27"/>
      <path d="M67 85L71 80L75 90L79 80L83 90L87 85"/>
    </g>
    <g fill="#E7E2D3"><circle cx="10" cy="56" r="3"/><circle cx="55" cy="56" r="3"/><circle cx="82" cy="27" r="3"/><circle cx="82" cy="85" r="3"/></g>
  </g>

  <!-- 12 Flowchart -->
  <g transform="translate(209 159)" filter="url(#shadow)">
    <use href="#tile"/>
    <g stroke="#8DBD81" stroke-width="1.5">
      <path d="M56 19V33M56 59V72M56 89V98M56 72H88V84"/>
    </g>
    <rect x="43" y="9" width="26" height="10" rx="5" fill="#8DBD81"/>
    <rect x="34" y="33" width="44" height="26" rx="5" fill="#182017" stroke="#8DBD81"/>
    <path d="M56 66L73 81L56 96L39 81Z" fill="#182017" stroke="#8DBD81"/>
    <rect x="79" y="84" width="18" height="18" rx="4" fill="#8DBD81" fill-opacity=".25" stroke="#8DBD81"/>
    <rect x="43" y="98" width="26" height="9" rx="4.5" fill="#8DBD81" fill-opacity=".35" stroke="#8DBD81"/>
  </g>

  <!-- 13 Sankey -->
  <g transform="translate(339 159)" filter="url(#shadow)">
    <use href="#tile"/>
    <path d="M16 29C43 29 42 46 72 46H96" stroke="#D7B766" stroke-width="8" stroke-opacity=".8"/>
    <path d="M16 56C46 56 44 51 72 51H96" stroke="#D96B68" stroke-width="11" stroke-opacity=".72"/>
    <path d="M16 84C46 84 44 59 72 59H96" stroke="#8DBD81" stroke-width="7" stroke-opacity=".75"/>
    <rect x="11" y="21" width="5" height="16" rx="2" fill="#D7B766"/><rect x="11" y="45" width="5" height="22" rx="2" fill="#D96B68"/><rect x="11" y="77" width="5" height="14" rx="2" fill="#8DBD81"/>
    <rect x="96" y="38" width="5" height="29" rx="2" fill="#E7E2D3"/>
  </g>

  <!-- 14 Timeline -->
  <g transform="translate(469 159)" filter="url(#shadow)">
    <use href="#tile"/>
    <path d="M16 57H96" stroke="#5A5549" stroke-width="2"/>
    <g>
      <circle cx="22" cy="57" r="5" fill="#D96B68"/><circle cx="45" cy="57" r="5" fill="#D7B766"/><circle cx="68" cy="57" r="5" fill="#8DBD81"/><circle cx="91" cy="57" r="5" fill="#B07CC6"/>
      <path d="M22 51V26M45 63V87M68 51V21M91 63V82" stroke="#5A5549"/>
      <rect x="13" y="18" width="18" height="8" rx="2" fill="#D96B68" fill-opacity=".28"/>
      <rect x="36" y="87" width="18" height="8" rx="2" fill="#D7B766" fill-opacity=".28"/>
      <rect x="59" y="13" width="18" height="8" rx="2" fill="#8DBD81" fill-opacity=".28"/>
      <rect x="82" y="82" width="18" height="8" rx="2" fill="#B07CC6" fill-opacity=".28"/>
    </g>
  </g>

  <!-- 15 Tree -->
  <g transform="translate(599 159)" filter="url(#shadow)">
    <use href="#tile"/>
    <g stroke="#B07CC6" stroke-width="1.5">
      <path d="M56 22V36M56 36H31V53M56 36H81V53M31 68V79M81 68V79M31 79H20V94M31 79H42V94M81 79H70V94M81 79H92V94"/>
    </g>
    <g fill="#261B2A" stroke="#B07CC6">
      <rect x="44" y="12" width="24" height="10" rx="3"/><rect x="20" y="53" width="22" height="15" rx="3"/><rect x="70" y="53" width="22" height="15" rx="3"/>
      <rect x="12" y="94" width="16" height="10" rx="3"/><rect x="34" y="94" width="16" height="10" rx="3"/><rect x="62" y="94" width="16" height="10" rx="3"/><rect x="84" y="94" width="16" height="10" rx="3"/>
    </g>
  </g>

  <!-- 16 Venn -->
  <g transform="translate(729 159)" filter="url(#shadow)">
    <use href="#tile"/>
    <circle cx="45" cy="47" r="29" fill="#D96B68" fill-opacity=".27" stroke="#D96B68"/>
    <circle cx="68" cy="47" r="29" fill="#D7B766" fill-opacity=".23" stroke="#D7B766"/>
    <circle cx="56" cy="72" r="29" fill="#8DBD81" fill-opacity=".22" stroke="#8DBD81"/>
  </g>

  <!-- 17 Matrix -->
  <g transform="translate(859 159)" filter="url(#shadow)">
    <use href="#tile"/>
    <g transform="translate(22 22)">
      <rect width="15" height="15" rx="2" fill="#D96B68"/><rect x="17" width="15" height="15" rx="2" fill="#504338"/><rect x="34" width="15" height="15" rx="2" fill="#8DBD81"/><rect x="51" width="15" height="15" rx="2" fill="#D7B766"/>
      <rect y="17" width="15" height="15" rx="2" fill="#6C5035"/><rect x="17" y="17" width="15" height="15" rx="2" fill="#B07CC6"/><rect x="34" y="17" width="15" height="15" rx="2" fill="#D98B52"/><rect x="51" y="17" width="15" height="15" rx="2" fill="#474139"/>
      <rect y="34" width="15" height="15" rx="2" fill="#8DBD81"/><rect x="17" y="34" width="15" height="15" rx="2" fill="#665238"/><rect x="34" y="34" width="15" height="15" rx="2" fill="#D96B68"/><rect x="51" y="34" width="15" height="15" rx="2" fill="#B07CC6"/>
      <rect y="51" width="15" height="15" rx="2" fill="#D7B766"/><rect x="17" y="51" width="15" height="15" rx="2" fill="#D98B52"/><rect x="34" y="51" width="15" height="15" rx="2" fill="#51473C"/><rect x="51" y="51" width="15" height="15" rx="2" fill="#8DBD81"/>
    </g>
  </g>

  <!-- 18 Waveform -->
  <g transform="translate(989 159)" filter="url(#shadow)">
    <use href="#tile"/>
    <path d="M13 57H99" stroke="#4B4B43"/>
    <path d="M13 57C21 57 21 23 29 23C37 23 37 91 45 91C53 91 53 36 61 36C69 36 69 77 77 77C85 77 85 48 99 48" stroke="#D96B68" stroke-width="2.5"/>
    <path d="M13 72C29 67 40 62 55 59C72 56 84 56 99 55" stroke="#D7B766" stroke-width="1.5" stroke-dasharray="3 4"/>
  </g>

  <!-- 19 Contour -->
  <g transform="translate(1119 159)" filter="url(#shadow)">
    <use href="#tile"/>
    <g transform="translate(56 56)" fill="none">
      <path d="M-38 9C-46-14-27-39 0-41C29-43 42-20 36 8C30 34 6 42-18 32C-29 27-34 18-38 9Z" stroke="#8DBD81"/>
      <path d="M-27 6C-32-9-18-28 0-29C20-31 30-15 26 5C22 24 6 31-11 24C-20 20-24 14-27 6Z" stroke="#D7B766"/>
      <path d="M-16 3C-19-6-11-17 0-18C12-19 18-10 16 2C13 14 4 18-6 14C-11 12-14 8-16 3Z" stroke="#D98B52"/>
      <circle r="4" fill="#D96B68" stroke="none"/>
    </g>
  </g>

  <!-- 20 Slides -->
  <g transform="translate(1249 159)" filter="url(#shadow)">
    <use href="#tile"/>
    <rect x="14" y="13" width="84" height="40" rx="5" fill="#151510" stroke="#8DBD81"/>
    <path d="M24 43L38 27L50 36L66 20L87 43" stroke="#8DBD81" stroke-width="2"/>
    <rect x="14" y="61" width="84" height="24" rx="5" fill="#151510" stroke="#D7B766"/>
    <rect x="23" y="68" width="30" height="3" rx="1.5" fill="#D7B766"/><rect x="23" y="76" width="63" height="2" rx="1" fill="#777061"/>
    <rect x="14" y="93" width="84" height="12" rx="4" fill="#151510" stroke="#B07CC6"/>
    <rect x="22" y="97" width="13" height="4" rx="1.5" fill="#B07CC6"/><rect x="41" y="98" width="45" height="2" rx="1" fill="#8B7E8F"/>
  </g>
</svg>
