<svg xmlns="http://www.w3.org/2000/svg" width="1440" height="480" viewBox="0 0 1440 480" fill="none">
  <defs>
    <linearGradient id="bg" x1="0" y1="0" x2="1440" y2="480" gradientUnits="userSpaceOnUse">
      <stop stop-color="#05070C"/>
      <stop offset=".52" stop-color="#070B13"/>
      <stop offset="1" stop-color="#05070C"/>
    </linearGradient>
    <linearGradient id="card" x1="0" y1="0" x2="0" y2="320" gradientUnits="userSpaceOnUse">
      <stop stop-color="#0D1420"/>
      <stop offset="1" stop-color="#080C13"/>
    </linearGradient>
    <linearGradient id="blue" x1="0" y1="0" x2="1" y2="1">
      <stop stop-color="#78A9FF"/>
      <stop offset="1" stop-color="#1F63FF"/>
    </linearGradient>
    <filter id="shadow" x="-30%" y="-30%" width="160%" height="170%">
      <feDropShadow dx="0" dy="18" stdDeviation="18" flood-color="#000" flood-opacity=".42"/>
    </filter>
    <filter id="softGlow" x="-100%" y="-100%" width="300%" height="300%">
      <feGaussianBlur stdDeviation="4"/>
    </filter>
    <clipPath id="c1"><rect x="78" y="80" width="190" height="320" rx="18"/></clipPath>
    <clipPath id="c2"><rect x="296" y="80" width="190" height="320" rx="18"/></clipPath>
    <clipPath id="c3"><rect x="514" y="80" width="190" height="320" rx="18"/></clipPath>
    <clipPath id="c4"><rect x="732" y="80" width="190" height="320" rx="18"/></clipPath>
    <clipPath id="c5"><rect x="950" y="80" width="190" height="320" rx="18"/></clipPath>
    <clipPath id="c6"><rect x="1168" y="80" width="190" height="320" rx="18"/></clipPath>
  </defs>

  <rect width="1440" height="480" rx="28" fill="url(#bg)"/>
  <path d="M0 62H1440M0 418H1440" stroke="#183055" stroke-opacity=".18"/>
  <circle cx="720" cy="240" r="350" stroke="#246BFD" stroke-opacity=".025"/>
  <circle cx="720" cy="240" r="248" stroke="#246BFD" stroke-opacity=".035"/>

  <!-- Card shells -->
  <g filter="url(#shadow)">
    <rect x="78" y="80" width="190" height="320" rx="18" fill="url(#card)" stroke="#20304A"/>
    <rect x="296" y="80" width="190" height="320" rx="18" fill="url(#card)" stroke="#20304A"/>
    <rect x="514" y="80" width="190" height="320" rx="18" fill="url(#card)" stroke="#20304A"/>
    <rect x="732" y="80" width="190" height="320" rx="18" fill="url(#card)" stroke="#20304A"/>
    <rect x="950" y="80" width="190" height="320" rx="18" fill="url(#card)" stroke="#20304A"/>
    <rect x="1168" y="80" width="190" height="320" rx="18" fill="url(#card)" stroke="#20304A"/>
  </g>

  <!-- 01 Candlestick -->
  <g clip-path="url(#c1)">
    <path d="M98 118H248M98 180H248M98 242H248M98 304H248M98 366H248" stroke="#B4C8ED" stroke-opacity=".055"/>
    <path d="M113 105V376M147 105V376M181 105V376M215 105V376M249 105V376" stroke="#B4C8ED" stroke-opacity=".04"/>
    <g stroke-width="3" stroke-linecap="round">
      <path d="M112 214V310" stroke="#ED7777"/><rect x="105" y="238" width="14" height="45" rx="3" fill="#D9676C"/>
      <path d="M137 176V274" stroke="#74C69D"/><rect x="130" y="199" width="14" height="49" rx="3" fill="#65B88B"/>
      <path d="M162 148V240" stroke="#74C69D"/><rect x="155" y="170" width="14" height="43" rx="3" fill="#65B88B"/>
      <path d="M187 190V305" stroke="#ED7777"/><rect x="180" y="215" width="14" height="60" rx="3" fill="#D9676C"/>
      <path d="M212 168V262" stroke="#74C69D"/><rect x="205" y="188" width="14" height="47" rx="3" fill="#65B88B"/>
      <path d="M237 202V338" stroke="#ED7777"/><rect x="230" y="230" width="14" height="72" rx="3" fill="#D9676C"/>
    </g>
    <path d="M104 337C126 324 139 331 157 304C176 277 185 298 205 262C221 234 235 240 250 218" stroke="#4081FF" stroke-width="2" stroke-opacity=".75"/>
    <circle cx="250" cy="218" r="4" fill="#74A8FF"/>
  </g>

  <!-- 02 Scientific line plot -->
  <g clip-path="url(#c2)">
    <path d="M322 342H461M322 342V126" stroke="#53657F" stroke-width="1.5"/>
    <path d="M322 288H461M322 234H461M322 180H461" stroke="#B4C8ED" stroke-opacity=".07"/>
    <path d="M325 319C346 311 349 290 365 287C383 284 386 306 402 290C420 271 424 214 440 178C449 158 455 148 463 135" stroke="#75A7FF" stroke-width="4" stroke-linecap="round"/>
    <path d="M325 328C343 322 356 323 372 315C393 305 407 282 423 257C441 229 451 216 463 211" stroke="#456FB5" stroke-width="2.5" stroke-linecap="round" stroke-dasharray="5 7"/>
    <path d="M325 319C346 311 349 290 365 287C383 284 386 306 402 290C420 271 424 214 440 178C449 158 455 148 463 135V342H325Z" fill="url(#blue)" opacity=".08"/>
    <g fill="#8BB6FF">
      <circle cx="365" cy="287" r="4"/><circle cx="402" cy="290" r="4"/><circle cx="440" cy="178" r="4"/><circle cx="463" cy="135" r="4"/>
    </g>
  </g>

  <!-- 03 Mini circuit -->
  <g clip-path="url(#c3)" stroke-linecap="round" stroke-linejoin="round">
    <g stroke="#5076B8" stroke-width="2">
      <path d="M537 238H567M588 238H620M650 238H681"/>
      <path d="M567 216V260M588 216V260"/>
      <path d="M620 238V180H646M620 238V300H646"/>
      <path d="M646 164V196M646 284V316"/>
      <path d="M646 180H678M646 300H678"/>
      <path d="M678 180V300"/>
    </g>
    <g stroke="#85AEF5" stroke-width="2.5">
      <path d="M537 238H555"/>
      <path d="M646 148V164M646 316V332"/>
      <path d="M638 148H654M638 332H654"/>
      <path d="M678 222H690M678 258H690"/>
    </g>
    <g fill="#377AF5">
      <circle cx="537" cy="238" r="5"/><circle cx="620" cy="238" r="5"/>
      <circle cx="678" cy="180" r="5"/><circle cx="678" cy="300" r="5"/>
    </g>
    <g stroke="#6C96DB" stroke-width="2">
      <path d="M541 166H560L567 157L579 175L590 148L603 183L615 166H630"/>
      <path d="M541 310H560L567 301L579 319L590 292L603 327L615 310H630"/>
    </g>
    <circle cx="620" cy="238" r="66" stroke="#2D62B2" stroke-opacity=".2"/>
  </g>

  <!-- 04 Paper workflow -->
  <g clip-path="url(#c4)">
    <g stroke="#315C9F" stroke-width="2">
      <path d="M775 151V178M775 222V249M775 293V320"/>
      <path d="M775 249H854V276"/>
      <path d="M854 320V342H775"/>
    </g>
    <g fill="#0D1A2C" stroke="#4B78BE">
      <rect x="753" y="113" width="44" height="38" rx="8"/>
      <rect x="745" y="178" width="60" height="44" rx="9"/>
      <rect x="745" y="249" width="60" height="44" rx="9"/>
      <rect x="824" y="276" width="60" height="44" rx="9"/>
      <rect x="745" y="320" width="60" height="44" rx="9"/>
    </g>
    <g fill="#72A3F4">
      <circle cx="775" cy="132" r="6"/>
      <rect x="759" y="193" width="32" height="3" rx="1.5"/>
      <rect x="759" y="202" width="22" height="3" rx="1.5" opacity=".55"/>
      <path d="M760 277L770 266L778 274L790 259" stroke="#72A3F4" stroke-width="3" fill="none"/>
      <circle cx="854" cy="298" r="10" fill="#2369E8" opacity=".7"/>
      <path d="M760 342H790" stroke="#72A3F4" stroke-width="3"/>
    </g>
  </g>

  <!-- 05 Network / embedding -->
  <g clip-path="url(#c5)">
    <g stroke="#4169A8" stroke-width="1.5" stroke-opacity=".72">
      <path d="M983 155L1020 195L1066 147L1107 203L1068 259L1110 316L1044 338L989 293L1023 245L983 155Z"/>
      <path d="M1020 195L1068 259L989 293M1066 147L1068 259M1107 203L1023 245M1020 195L1023 245M1068 259L1044 338"/>
    </g>
    <g fill="#76A7F5">
      <circle cx="983" cy="155" r="7"/><circle cx="1020" cy="195" r="5"/>
      <circle cx="1066" cy="147" r="6"/><circle cx="1107" cy="203" r="7"/>
      <circle cx="1068" cy="259" r="6"/><circle cx="1110" cy="316" r="5"/>
      <circle cx="1044" cy="338" r="7"/><circle cx="989" cy="293" r="6"/>
      <circle cx="1023" cy="245" r="4"/>
    </g>
    <g fill="#D6B45F">
      <circle cx="983" cy="155" r="3"/><circle cx="1068" cy="259" r="3"/><circle cx="1110" cy="316" r="2.5"/>
    </g>
    <circle cx="1068" cy="259" r="18" fill="#2B73FF" opacity=".08"/>
  </g>

  <!-- 06 Slides -->
  <g clip-path="url(#c6)">
    <rect x="1191" y="116" width="144" height="92" rx="9" fill="#0B1728" stroke="#315F9E"/>
    <rect x="1191" y="224" width="144" height="66" rx="9" fill="#0B1728" stroke="#274D81"/>
    <rect x="1191" y="306" width="144" height="58" rx="9" fill="#0B1728" stroke="#274D81"/>
    <path d="M1210 185L1231 160L1249 174L1273 140L1317 185" stroke="#70A2F5" stroke-width="3" stroke-linecap="round" stroke-linejoin="round"/>
    <circle cx="1273" cy="140" r="5" fill="#377AF5"/>
    <g fill="#6B94D2">
      <rect x="1210" y="240" width="50" height="6" rx="3"/>
      <rect x="1210" y="255" width="104" height="4" rx="2" opacity=".55"/>
      <rect x="1210" y="266" width="78" height="4" rx="2" opacity=".35"/>
      <rect x="1210" y="322" width="34" height="25" rx="5" fill="#215FC8" opacity=".65"/>
      <rect x="1255" y="322" width="61" height="5" rx="2.5"/>
      <rect x="1255" y="335" width="45" height="4" rx="2" opacity=".45"/>
    </g>
  </g>

  <!-- Subtle card indices -->
  <g fill="#4E6E9E" font-family="ui-monospace, SFMono-Regular, Menlo, monospace" font-size="10" letter-spacing="2">
    <text x="98" y="382">MARKET</text>
    <text x="316" y="382">CHART</text>
    <text x="534" y="382">CIRCUIT</text>
    <text x="752" y="382">PAPER</text>
    <text x="970" y="382">GRAPH</text>
    <text x="1188" y="382">SLIDES</text>
  </g>
</svg>
